PathFileType	4	(X/Y/Z)	SUBJ24_1_walk_RCNL2025.trc
DataRate	CameraRate	NumFrames	NumMarkers	Units	OrigDataRate	OrigDataStartFrame	OrigNumFrames
100	100	5	25	mm	100	252	335
Frame#	Time	R_Shoulder			L_Shoulder			C7			J_Notch			R_Elbow			L_Elbow			R_Wrist			L_Wrist			R_Asis			L_Asis			Sacral			Thoracic			Sternum			R_Thigh_Lateral			R_Knee_Lateral			R_Shank_Lateral			R_Ankle_Lateral			R_Heel			R_Toe			L_Thigh_Lateral			L_Knee_Lateral			L_Shank_Lateral			L_Ankle_Lateral			L_Heel			L_Toe		
		X1	Y1	Z1	X2	Y2	Z2	X3	Y3	Z3	X4	Y4	Z4	X5	Y5	Z5	X6	Y6	Z6	X7	Y7	Z7	X8	Y8	Z8	X9	Y9	Z9	X10	Y10	Z10	X11	Y11	Z11	X12	Y12	Z12	X13	Y13	Z13	X14	Y14	Z14	X15	Y15	Z15	X16	Y16	Z16	X17	Y17	Z17	X18	Y18	Z18	X19	Y19	Z19	X20	Y20	Z20	X21	Y21	Z21	X22	Y22	Z22	X23	Y23	Z23	X24	Y24	Z24	X25	Y25	Z25
252	2.51000000	311.194427	1305.273315	414.169373	277.243103	1327.429443	73.111710	211.070480	1380.848633	251.998428	342.097534	1287.310181	238.287552	271.067932	1021.801025	503.999969	261.414825	1040.111084	-28.040274	327.079483	791.113495	493.015961	403.889984	850.134033	-33.858999	335.879395	886.377747	407.103363	302.235352	863.326416	82.347588	144.071716	919.417725	265.231171	143.379898	1112.254883	247.269897	413.163696	1070.114868	224.652542	307.146027	564.078125	436.329956	374.812134	441.786133	344.389282	368.681885	295.824860	389.166992	345.259064	66.154289	311.887939	295.355927	39.653408	254.705566	470.932312	44.256180	298.593872	292.624359	557.728149	48.357681	328.840210	432.992249	89.983253	205.705185	349.757690	50.898598	32.203312	210.273544	128.867859	-4.587321	223.853043	195.434601	85.065529	96.055855	137.149368
253	2.52000000	323.099304	1307.717651	414.309814	287.982513	1329.257080	73.223022	222.614761	1383.029541	252.293335	353.488892	1289.406738	238.513977	286.968964	1024.226196	505.175415	269.426086	1041.321533	-26.416330	347.891907	794.798645	493.989975	404.408157	846.060364	-32.387244	346.874420	887.443115	407.883118	313.715118	866.487000	82.375748	155.716980	921.464966	266.171631	155.067993	1114.275879	248.652206	424.500061	1072.323486	224.739197	313.844757	565.489746	436.784760	378.263031	441.651611	344.609619	370.900085	295.672729	389.327545	345.403107	66.105408	311.887848	295.236542	39.661057	254.814117	470.881470	44.253464	298.659393	312.799164	561.598083	47.779991	352.995636	438.192688	88.720520	231.005615	354.067566	50.210724	60.884884	210.064133	127.949356	23.651365	222.512054	194.679169	116.536369	97.341301	135.765503
254	2.53000000	334.809387	1310.175537	414.513367	298.621979	1330.899292	73.345314	234.073486	1385.039917	252.562454	364.823212	1291.365112	238.747894	302.813629	1026.691162	506.379486	277.390045	1042.468140	-24.869701	368.773163	798.684204	494.797241	404.529480	842.159515	-30.841369	357.772980	888.364746	408.567383	325.268860	869.620789	82.370110	167.329788	923.334839	266.901611	166.718643	1116.123901	250.046722	435.793243	1074.464966	224.890198	320.727722	567.035828	437.220551	381.525970	441.524048	344.775879	373.014282	295.565521	389.452393	345.546844	66.077515	311.890533	295.142578	39.693905	254.908417	470.847809	44.230190	298.719086	332.829346	565.534363	47.218636	376.631653	443.451324	87.639839	256.479370	357.386292	49.466072	90.437828	208.042404	126.962021	52.477249	219.389511	193.590134	149.566925	97.342621	135.050751
255	2.54000000	346.333893	1312.595947	414.797455	309.201904	1332.320068	73.501488	245.465485	1386.836548	252.822906	376.119080	1293.143311	239.001328	318.558258	1029.143677	507.624420	285.284363	1043.514771	-23.391726	389.679581	802.731018	495.436188	404.378021	838.469025	-29.246089	368.563293	889.167603	409.168243	336.992279	872.622986	82.380356	178.911209	924.992004	267.362854	178.336243	1117.767334	251.402771	447.052368	1076.491333	225.130463	327.488007	568.512512	437.548553	384.600525	441.399658	344.926849	374.909027	295.508026	389.573761	345.675323	66.080452	311.885956	295.091675	39.758541	254.967300	470.831818	44.191151	298.773621	352.658844	569.447937	46.696354	399.724609	448.612640	86.758331	282.125458	359.546143	48.677200	120.796104	204.369797	125.956024	81.912285	214.528839	192.277313	183.973938	96.204140	134.766998
256	2.55000000	357.698853	1314.913818	415.162750	319.758301	1333.484375	73.699158	256.811584	1388.387817	253.088501	387.392975	1294.707031	239.278870	334.161530	1031.521973	508.916962	293.084747	1044.419312	-21.966877	410.571899	806.889038	495.911530	404.070160	835.004822	-27.619709	379.244751	889.864380	409.693054	348.948090	875.400818	82.444725	190.460281	926.412415	267.523438	189.926102	1119.183350	252.687866	458.290100	1078.355225	225.470596	333.851471	569.745239	437.698608	387.528503	441.273682	345.077728	376.536987	295.491516	389.709229	345.787354	66.114952	311.861633	295.090210	39.856945	254.980911	470.833496	44.138927	298.825012	372.241943	573.272095	46.231014	422.260590	453.542084	86.087936	307.890564	360.481293	47.882786	151.917023	199.229187	124.972443	112.029175	207.990860	190.860428	219.589798	94.095596	134.675827
